# AST/ASF file generated using VICON BodyLanguage
# -----------------------------------------------
:version 1.10
:name VICON
:units
  mass 1.0
  length 0.45
  angle deg
:documentation
   .ast/.asf automatically generated from VICON data using
   VICON BodyBuilder and BodyLanguage model FoxedUp or BRILLIANT.MOD
:root
   order TX TY TZ RX RY RZ
   axis XYZ
   position 0 0 0  
   orientation 0 0 0 
:bonedata
  begin
     id 1 
     name lhipjoint
     direction 0.653368 -0.678499 0.335782 
     length 2.51848 
     axis 0 0 0  XYZ
  end
  begin
     id 2 
     name lfemur
     direction 0.34202 -0.939693 0  
     length 6.57749  
     axis 0 0 20  XYZ
    dof rx ry rz
    limits (-160.0 20.0)
           (-70.0 70.0)
           (-60.0 70.0)
  end
  begin
     id 3 
     name ltibia
     direction 0.34202 -0.939693 0   
     length 7.94618   
     axis 0 0 20   XYZ
    dof rx
    limits (-10.0 170.0)
  end
  begin
     id 4 
     name lfoot
     direction 0.0811271 -0.222895 0.971461   
     length 2.31339   
     axis -90 7.62852e-016 20   XYZ
    dof rx rz
    limits (-45.0 90.0)
           (-70.0 20.0)
  end
  begin
     id 5 
     name ltoes
     direction 1.53568e-011 -4.21885e-011 1   
     length 1.15935   
     axis -90 7.62852e-016 20   XYZ
    dof rx
    limits (-90.0 20.0)
  end
  begin
     id 6 
     name rhipjoint
     direction -0.640058 -0.688614 0.340788   
     length 2.48149  
     axis 0 0 0  XYZ 
  end
  begin
     id 7 
     name rfemur
     direction -0.34202 -0.939693 0   
     length 6.57875   
     axis 0 0 -20   XYZ
    dof rx ry rz
    limits (-160.0 20.0)
           (-70.0 70.0)
           (-70.0 60.0)
  end
  begin
     id 8 
     name rtibia
     direction -0.34202 -0.939693 0   
     length 7.977   
     axis 0 0 -20   XYZ
    dof rx
    limits (-10.0 170.0)
 end
 begin
     id 9 
     name rfoot
     direction -0.0979793 -0.269196 0.958089   
     length 2.19857  
     axis -90 -7.62852e-016 -20   XYZ
    dof rx rz
    limits (-45.0 90.0)
           (-20.0 70.0)
  end
  begin
     id 10 
     name rtoes
     direction -1.53556e-011 -4.21868e-011 1   
     length 1.09838   
     axis -90 -7.62852e-016 -20   XYZ
    dof rx
    limits (-90.0 20.0)
  end
  begin
     id 11 
     name lowerback
     direction 0.0149039 0.998517 -0.0523597   
     length 2.10809   
     axis 0 0 0   XYZ
    dof rx ry rz
    limits (-20.0 45.0)
           (-30.0 30.0)
           (-30.0 30.0)
  end
  begin
     id 12 
     name upperback
     direction -0.00882659 0.999418 -0.0329624   
     length 2.1102   
     axis 0 0 0   XYZ
    dof rx ry rz
    limits (-20.0 45.0)
           (-30.0 30.0)
           (-30.0 30.0)
  end
  begin
     id 13 
     name thorax
     direction -0.0165585 0.999826 -0.0085833   
     length 2.11039   
     axis 0 0 0   XYZ
    dof rx ry rz
    limits (-20.0 45.0)
           (-30.0 30.0)
           (-30.0 30.0)
  end
  begin
     id 14 
     name lowerneck
     direction -0.0130877 0.999911 0.00260353   
     length 1.73253   
     axis 0 0 0   XYZ
    dof rx ry rz
    limits (-20.0 45.0)
           (-30.0 30.0)
           (-30.0 30.0)
  end
  begin
     id 15 
     name upperneck
     direction -0.0348454 0.928205 -0.370435   
     length 1.66692   
     axis 0 0 0   XYZ
    dof rx ry rz
    limits (-20.0 45.0)
           (-30.0 30.0)
           (-30.0 30.0)
  end
  begin
     id 16
     name head
     direction -0.00807754 0.992494 -0.122026  
     length 1.72765  
     axis 0 0 0   XYZ
    dof rx ry rz
    limits (-20.0 45.0)
           (-30.0 30.0)
           (-30.0 30.0)
  end
  begin
     id 17 
     name lclavicle
     direction 0.987582 0.144023 0.0627671  
     length 3.49235  
     axis 0 0 0   XYZ
    dof ry rz
    limits (-20.0 10.0)
           (0.0 20.0)
  end
  begin
     id 18 
     name lhumerus
     direction 1 -4.48958e-011 -1.45183e-018   
     length 5.41917   
     axis 180 -30 -90   XYZ
    dof rx ry rz
    limits (-60.0 90.0)
           (-90.0 90.0)
           (-90.0 90.0)
  end
  begin
     id 19
     name lradius
     direction 1 -4.48999e-011 5.75106e-027   
     length 2.44373   
     axis 180 -30 -90   XYZ
    dof rx
    limits (-10.0 170.0)
  end
  begin
     id 20
     name lwrist
     direction 1 -4.48987e-011 1.53461e-026   
     length 1.22186   
     axis -1.09697e-014 90 90   XYZ
    dof ry
    limits (-180.0 0.0)
 end
  begin
     id 21 
     name lhand
     direction 1 -4.48881e-011 3.06923e-026   
     length 0.727502   
     axis -1.95843e-014 90 90   XYZ
    dof rx rz
    limits (-90.0 90.0)
           (-45.0 45.0)
  end
  begin
     id 22 
     name lfingers
     direction 1 -4.48907e-011 6.13845e-026   
     length 0.586531   
     axis -3.91686e-014 90 90   XYZ
    dof rx
    limits (0.0 90.0)
  end
  begin
     id 23
     name lthumb
     direction 0.707107 -6.3487e-011 0.707107   
     length 0.842145   
     axis -90 45 2.85299e-015   XYZ
    dof rx rz
    limits (-45.0 45.0)
           (-45.0 45.0)
  end
  begin
     id 24 
     name rclavicle
     direction -0.980998 0.169556 0.0943023   
     length 3.29272  
     axis 0 0 0   XYZ 
    dof ry rz
    limits (-10.0 20.0)
           (-20.0 0.0)
  end
  begin
     id 25 
     name rhumerus
     direction -1 -1.83355e-005 2.45537e-005  
     length 5.58976   
     axis 180 30 90   XYZ
    dof rx ry rz
    limits (-90.0 60.0)
           (-90.0 90.0)
           (-90.0 90.0)
  end
  begin
     id 26 
     name rradius
     direction -1 -4.48967e-011 5.97228e-027   
     length 2.4806   
     axis 180 30 90   XYZ
    dof rx
    limits (-10.0 170.0)
  end
  begin
     id 27 
     name rwrist
     direction -1 -4.48963e-011 1.53461e-026   
     length 1.2403   
     axis -1.09697e-014 -90 -90   XYZ
    dof ry
    limits (-180.0 0.0)
  end
  begin
     id 28
     name rhand
     direction -1 -4.48881e-011 3.06923e-026   
     length 0.816009   
     axis -1.95843e-014 -90 -90   XYZ
    dof rx rz
    limits (-90.0 90.0)
           (-45.0 45.0)
  end
  begin
     id 29
     name rfingers
     direction -1 -4.49018e-011 6.13845e-026   
     length 0.657887   
     axis -3.91686e-014 -90 -90   XYZ
    dof rx
    limits (0.0 90.0)
  end
  begin
     id 30
     name rthumb
     direction -0.707107 -6.34872e-011 0.707107   
     length 0.944599   
     axis -90 -45 -2.85299e-015   XYZ
    dof rx rz
    limits (-45.0 45.0)
           (-45.0 45.0)
  end
:hierarchy
  begin
    root lhipjoint rhipjoint lowerback
    lhipjoint lfemur
    lfemur ltibia
    ltibia lfoot
    lfoot ltoes
    rhipjoint rfemur
    rfemur rtibia
    rtibia rfoot
    rfoot rtoes
    lowerback upperback
    upperback thorax
    thorax lowerneck lclavicle rclavicle
    lowerneck upperneck
    upperneck head
    lclavicle lhumerus
    lhumerus lradius
    lradius lwrist
    lwrist lhand lthumb
    lhand lfingers
    rclavicle rhumerus
    rhumerus rradius
    rradius rwrist
    rwrist rhand rthumb
    rhand rfingers
  end

#!OML:ASF F:\VICON\USERDATA\INSTALL\rory3\rory3.ASF
:FULLY-SPECIFIED
:DEGREES
85
root -0.646954 16.4442 16.723 -159.566 -7.05176 -182.157
lowerback -4.38547 -2.28976 -0.639975
upperback -5.24127 -3.37851 0.681257
thorax -2.86403 -1.80605 1.00319
lowerneck -19.0812 -1.33054 1.72931
upperneck 36.3106 0.96159 -1.23497
head 16.1826 1.49517 -0.359337
rclavicle -6.34869e-014 -1.17283e-014
rhumerus -111.055 -68.3402 90.9702
rradius 12.6034
rwrist 96.629
rhand -6.36779 5.96517
rfingers 7.12502
rthumb 19.4788 -23.0791
lclavicle -6.34869e-014 -1.17283e-014
lhumerus 10.0175 11.7717 46.5471
lradius 15.8807
lwrist -46.4848
lhand -3.59597 25.4537
lfingers 7.12502
lthumb 22.1419 54.2058
rfemur -63.2983 1.18831 17.028
rtibia 40.4715
rfoot 7.55874 -25.9112
rtoes 26.8842
lfemur -10.8042 -5.94255 -29.6743
ltibia 32.1453
lfoot -24.9509 19.0141
ltoes -32.4044
86
root -0.628178 16.487 16.5155 -159.406 -7.26455 -181.984
lowerback -4.61369 -2.23971 -0.267765
upperback -5.45067 -3.34738 0.743088
thorax -2.97155 -1.8136 0.856698
lowerneck -18.72 -1.37421 1.59483
upperneck 36.2019 0.993995 -1.28057
head 16.041 1.49429 -0.348454
rclavicle -2.26118e-015 -1.39149e-015
rhumerus -121.432 -65.1444 102.941
rradius 13.0089
rwrist 100.381
rhand -7.00511 6.25858
rfingers 7.12502
rthumb 18.8659 -22.8465
lclavicle -2.26118e-015 -1.39149e-015
lhumerus 9.01542 17.7045 46.963
lradius 14.9772
lwrist -47.8579
lhand -4.0013 26.0973
lfingers 7.12502
lthumb 21.7527 54.895
rfemur -62.5532 1.72409 17.2973
rtibia 40.5624
rfoot 5.56298 -26.2041
rtoes 28.5677
lfemur -10.7215 -6.05992 -29.1676
ltibia 32.6554
lfoot -23.0812 18.769
ltoes -32.7488
87
root -0.606327 16.5376 16.3105 -159.29 -7.23323 -181.819
lowerback -4.65347 -2.15655 0.0591056
upperback -5.67255 -3.27181 0.737575
thorax -3.19937 -1.79858 0.677294
lowerneck -18.5667 2.02807 0.46622
upperneck 36.2835 -0.350555 0.229954
head 16.0397 -1.0907 -0.348844
rclavicle -2.09718e-014 -5.36719e-015
rhumerus -130.044 -61.2357 113.024
rradius 13.486
rwrist 103.72
rhand -7.22826 5.39157
rfingers 7.12502
rthumb 18.6513 -23.7343
lclavicle -2.09718e-014 -5.36719e-015
lhumerus 8.52634 25.844 47.6335
lradius 13.9103
lwrist -50.5935
lhand -4.20507 26.6304
lfingers 7.12502
lthumb 21.557 55.4507
rfemur -61.8708 2.40257 17.5821
rtibia 40.6065
rfoot 4.55872 -26.6586
rtoes 28.1088
lfemur -10.7714 -5.99834 -28.7465
ltibia 33.2881
lfoot -21.3561 18.8058
ltoes -33.7805
88
root -0.591376 16.5962 16.1048 -159.273 -7.24261 -181.407
lowerback -4.74939 -2.09681 0.743426
upperback -5.64172 -3.20829 0.755783
thorax -3.14925 -1.79151 0.311029
lowerneck -19.0835 -1.20578 1.79209
upperneck 36.3876 1.26435 -1.47769
head 16.2317 1.60782 -0.414066
rclavicle 4.38569e-014 -5.96354e-016
rhumerus -134.257 -58.4181 117.962
rradius 13.7586
rwrist 103.816
rhand -7.30086 4.34461
rfingers 7.12502
rthumb 18.5814 -24.7879
lclavicle 4.38569e-014 -5.96354e-016
lhumerus 8.90212 35.2744 48.5954
lradius 12.8449
lwrist -53.3311
lhand -4.39489 27.8267
lfingers 7.12502
lthumb 21.3747 56.6678
rfemur -61.0772 2.91585 18.2334
rtibia 40.6055
rfoot 3.3427 -27.144
rtoes 28.2094
lfemur -10.9117 -5.72731 -28.0902
ltibia 34.1179
lfoot -19.7173 18.6086
ltoes -33.3147
89
root -0.565644 16.6493 15.8957 -159.072 -6.86677 -181.453
lowerback -5.34973 -1.92929 0.639947
upperback -5.7326 -3.01769 0.62905
thorax -2.91028 -1.70761 0.217836
lowerneck -18.4777 2.13729 0.647168
upperneck 36.2652 -0.239048 0.206119
head 16.0104 -1.02351 -0.369731
rclavicle 3.47376e-014 7.95139e-016
rhumerus -136.137 -56.0984 120.517
rradius 13.9552
rwrist 102.611
rhand -7.4158 3.75596
rfingers 7.12502
rthumb 18.4709 -25.3871
lclavicle 3.47376e-014 7.95139e-016
lhumerus 9.48474 44.8594 49.6851
lradius 12.0109
lwrist -55.5007
lhand -4.94009 28.989
lfingers 7.12502
lthumb 20.851 57.8885
rfemur -60.538 4.01174 17.9651
rtibia 40.6697
rfoot 1.91713 -28.0972
rtoes 29.5086
lfemur -11.3803 -5.07325 -27.9763
ltibia 35.1509
lfoot -17.7834 18.6055
ltoes -32.645
90
root -0.555246 16.7079 15.6984 -159.218 -7.05819 -181.355
lowerback -5.35357 -1.97155 1.01291
upperback -5.78132 -3.09169 0.609118
thorax -2.9795 -1.76123 -0.010385
lowerneck -18.1037 2.17564 0.545353
upperneck 36.1714 -0.218402 0.346231
head 15.8728 -1.01994 -0.287699
rclavicle -5.15846e-014 -6.36111e-015
rhumerus -141.286 -51.84 126.868
rradius 14.4005
rwrist 104.202
rhand -7.73399 3.78523
rfingers 7.12502
rthumb 18.1648 -25.3866
lclavicle -5.15846e-014 -6.36111e-015
lhumerus 10.4802 54.6647 51.0273
lradius 11.4568
lwrist -56.6699
lhand -5.81305 30.7853
lfingers 7.12502
lthumb 20.0121 59.7748
rfemur -59.6159 4.45068 18.0803
rtibia 40.7682
rfoot 0.825631 -28.7755
rtoes 29.7808
lfemur -11.7107 -4.54922 -27.583
ltibia 36.5428
lfoot -15.6745 18.7787
ltoes -32.1927
91
root -0.511838 16.7594 15.5005 -159.31 -6.94239 -181.407
lowerback -5.31653 -1.99251 0.669452
upperback -5.88248 -3.12067 0.622365
thorax -3.08734 -1.76862 0.198891
lowerneck -17.6233 -1.2035 1.68835
upperneck 35.9989 1.3169 -1.21231
head 15.6833 1.69495 -0.271977
rclavicle 2.48481e-014 6.36111e-015
rhumerus -144.526 -48.3287 130.954
rradius 14.7044
rwrist 104.146
rhand -8.41028 3.1502
rfingers 7.12502
rthumb 17.514 -26.0809
lclavicle 2.48481e-014 6.36111e-015
lhumerus 13.8501 65.9522 54.5552
lradius 10.9364
lwrist -59.2111
lhand -6.75665 29.0632
lfingers 7.12502
lthumb 19.1049 58.1449
rfemur -58.9063 6.02792 17.4003
rtibia 40.9697
rfoot -1.92122 -30.3169
rtoes 32.3082
lfemur -12.4143 -3.66768 -27.2342
ltibia 38.2496
lfoot -13.6443 18.6373
ltoes -28.4404
